<?xml version="1.0" standalone="no"?>
<!DOCTYPE svg PUBLIC "-//W3C//DTD SVG 20010904//EN"
 "http://www.w3.org/TR/2001/REC-SVG-20010904/DTD/svg10.dtd">
<svg version="1.0"
  xmlns="http://www.w3.org/2000/svg" width="512.000000pt" height="512.000000pt" viewBox="0 0 512.000000 512.000000" preserveAspectRatio="xMidYMid meet">
  <metadata>
Created by potrace 1.16, written by Peter Selinger 2001-2019
  </metadata>
  <g transform="translate(0.000000,512.000000) scale(0.100000,-0.100000)" fill="#e3a83a" stroke="none">
    <path d="M2350 4949 c-761 -72 -1435 -489 -1832 -1135 -224 -364 -341 -762
-352 -1196 -10 -408 66 -753 249 -1123 234 -473 608 -847 1080 -1080 232 -114
430 -180 665 -219 765 -128 1545 120 2090 665 192 193 337 395 455 634 183
373 259 712 250 1120 -9 364 -85 675 -245 1000 -193 391 -471 708 -835 950
-117 78 -359 199 -498 250 -315 115 -699 165 -1027 134z m400 -240 c878 -80
1620 -682 1874 -1522 99 -325 119 -652 61 -992 -132 -780 -687 -1429 -1437
-1679 -543 -181 -1120 -145 -1633 104 -636 309 -1086 922 -1190 1625 -20 134
-27 396 -14 525 15 147 55 330 105 479 314 940 1248 1551 2234 1460z"/>
    <path d="M2428 4180 c-257 -44 -433 -195 -492 -426 -8 -32 -18 -130 -22 -218
-6 -144 -9 -160 -29 -182 -27 -29 -35 -64 -35 -153 0 -123 38 -225 131 -347
28 -38 57 -86 65 -107 46 -130 153 -272 254 -337 262 -168 579 -60 734 251 25
50 46 96 46 103 0 6 27 47 60 91 79 105 121 205 127 306 7 101 -3 161 -31 192
-21 23 -24 36 -28 164 -7 164 -29 247 -83 310 -19 23 -35 49 -35 60 0 34 -57
139 -91 168 -117 98 -382 157 -571 125z"/>
    <path d="M1995 2509 c-167 -67 -374 -158 -460 -202 -82 -42 -115 -66 -186
-136 -92 -92 -141 -168 -192 -300 -41 -107 -75 -244 -83 -342 -7 -99 -6 -102
96 -141 584 -226 2129 -231 2759 -7 121 42 125 47 117 139 -29 317 -167 595
-364 732 -60 41 -275 143 -460 217 l-152 61 -88 -88 c-138 -140 -256 -195
-422 -195 -76 0 -109 5 -167 25 -96 34 -200 105 -276 189 -34 38 -64 69 -67
68 -3 0 -27 -9 -55 -20z"/>
  </g>
</svg>
